<?xml version="1.0" standalone="no"?>
<!DOCTYPE svg PUBLIC "-//W3C//DTD SVG 20010904//EN"
 "http://www.w3.org/TR/2001/REC-SVG-20010904/DTD/svg10.dtd">
<svg version="1.0" xmlns="http://www.w3.org/2000/svg"
 width="604.000000pt" height="677.000000pt" viewBox="0 0 604.000000 677.000000"
 preserveAspectRatio="xMidYMid meet">

<g transform="translate(0.000000,677.000000) scale(0.100000,-0.100000)"
fill="#000000" stroke="none">
<path d="M1558 6623 c4 -134 16 -173 57 -181 15 -3 16 1 10 39 -4 24 -14 61
-21 83 -8 22 -13 65 -12 97 2 52 -11 89 -31 89 -4 0 -5 -57 -3 -127z"/>
<path d="M4267 6669 c-28 -16 -49 -67 -58 -142 -5 -38 -14 -76 -20 -83 -27
-33 -59 -2 -59 55 0 23 -5 31 -17 31 -60 -1 -84 -94 -39 -147 21 -24 32 -28
75 -28 74 0 83 14 91 134 6 82 12 108 34 145 27 46 26 54 -7 35z"/>
<path d="M1878 6501 c-34 -59 -40 -64 -108 -86 -30 -10 -82 -31 -115 -47 -33
-15 -67 -28 -76 -28 -8 0 -25 18 -38 40 -12 22 -39 51 -59 65 -67 46 -82 26
-31 -44 l30 -43 -7 -104 c-4 -57 -3 -104 1 -104 4 0 44 34 88 76 93 86 162
130 221 139 46 8 137 35 148 44 8 7 -12 141 -21 141 -3 0 -18 -22 -33 -49z"/>
<path d="M3850 6474 c-1 -33 -21 -194 -26 -208 -14 -35 26 -14 46 24 12 23 27
43 35 46 8 3 35 -10 61 -30 46 -35 49 -36 135 -36 48 0 94 -3 103 -6 23 -9 20
-49 -10 -165 -14 -55 -24 -105 -22 -111 2 -6 29 18 59 54 46 54 58 76 68 125
9 47 20 69 51 103 60 65 55 71 -52 48 -172 -36 -244 -11 -430 150 -10 8 -18
11 -18 6z"/>
<path d="M1644 6242 c-12 -9 -36 -25 -53 -34 l-32 -17 25 -38 c47 -73 55 -156
21 -223 -7 -14 -16 -36 -20 -48 -6 -22 -5 -23 17 -12 12 7 52 36 88 65 73 58
186 123 196 112 4 -4 11 -50 15 -102 7 -84 14 -108 54 -192 25 -52 45 -100 45
-105 0 -6 -25 -7 -62 -4 -63 7 -63 7 -41 -12 26 -23 151 -77 159 -69 5 5 -18
74 -91 272 -31 84 -37 113 -38 180 0 44 5 97 11 118 6 20 8 37 6 37 -2 0 -23
-12 -47 -27 -62 -39 -163 -83 -191 -83 -58 0 -42 27 70 117 l39 32 -52 -6
c-57 -6 -83 6 -83 38 0 23 -9 23 -36 1z"/>
<path d="M3893 6214 c-34 -17 -73 -83 -73 -122 0 -23 17 -33 114 -67 39 -14
54 -27 79 -67 34 -54 39 -52 57 25 13 58 8 70 -38 90 -21 9 -55 34 -76 56 -61
63 -35 87 62 56 27 -9 30 10 3 24 -36 20 -95 22 -128 5z"/>
<path d="M3500 5984 c0 -8 5 -12 10 -9 6 3 10 10 10 16 0 5 -4 9 -10 9 -5 0
-10 -7 -10 -16z"/>
<path d="M3840 5905 l-45 -24 61 -1 c34 0 76 3 93 6 30 6 31 8 15 25 -23 26
-69 23 -124 -6z"/>
<path d="M2316 5840 c-4 -19 -17 -67 -28 -105 l-20 -70 37 -85 37 -84 -21 -17
c-12 -10 -54 -30 -94 -45 -39 -15 -112 -47 -160 -71 -49 -24 -94 -42 -100 -40
-6 2 -16 23 -22 48 l-11 44 -52 3 c-58 3 -57 7 -43 -80 12 -71 -1 -125 -33
-139 -17 -8 -40 -6 -93 10 -66 20 -103 26 -103 17 0 -2 7 -23 15 -46 8 -23 15
-54 15 -69 0 -43 -43 -121 -119 -216 -76 -95 -131 -180 -131 -205 0 -8 15 3
33 25 17 22 83 89 146 150 62 60 120 123 128 140 10 17 15 51 14 82 -2 62 13
75 76 66 63 -8 81 0 178 82 161 136 213 161 355 172 41 3 83 10 93 15 23 12
22 43 -3 78 -53 75 -73 140 -79 260 -5 90 -8 108 -15 80z"/>
<path d="M3630 5855 c0 -3 11 -27 25 -54 16 -33 32 -50 47 -53 38 -7 119 3
115 15 -1 5 -39 29 -82 53 -74 41 -105 52 -105 39z"/>
<path d="M3412 5815 c-17 -14 -56 -40 -88 -58 -39 -21 -64 -44 -79 -71 -12
-21 -28 -42 -36 -46 -8 -4 -63 -10 -122 -14 -77 -4 -122 -12 -157 -27 -28 -12
-50 -24 -50 -28 0 -4 30 -14 68 -24 53 -13 76 -15 112 -6 50 11 90 7 163 -19
56 -19 58 -18 82 66 10 33 39 83 78 135 35 45 66 87 70 94 15 24 -12 22 -41
-2z"/>
<path d="M2916 5800 c-16 -5 -48 -27 -70 -49 -23 -21 -59 -48 -81 -59 l-40
-21 46 -1 c25 0 78 11 117 25 79 28 137 31 224 13 67 -14 71 -11 83 50 9 48
-4 56 -53 37 -38 -16 -46 -16 -105 -1 -70 18 -79 18 -121 6z"/>
<path d="M3880 5750 c-8 -5 -11 -12 -8 -16 4 -3 0 -20 -8 -35 -11 -22 -14 -58
-12 -152 3 -131 6 -132 33 -17 22 93 43 135 90 180 35 34 36 35 13 42 -35 9
-91 9 -108 -2z"/>
<path d="M2590 5680 c0 -5 7 -10 16 -10 8 0 12 5 9 10 -3 6 -10 10 -16 10 -5
0 -9 -4 -9 -10z"/>
<path d="M5683 5619 c4 -13 7 -48 7 -76 0 -46 3 -53 19 -53 36 0 104 111 82
133 -5 5 -33 12 -62 15 -51 5 -52 4 -46 -19z"/>
<path d="M3680 5574 c-45 -48 -52 -59 -37 -62 22 -4 50 19 78 65 36 58 15 56
-41 -3z"/>
<path d="M2143 5574 c-12 -23 -34 -56 -49 -73 -32 -38 -24 -52 14 -24 37 28
64 77 60 110 -3 28 -4 28 -25 -13z"/>
<path d="M5481 5534 c-101 -50 -118 -76 -136 -210 -22 -152 -43 -185 -155
-240 -117 -58 -153 -107 -119 -163 17 -26 3 -70 -27 -83 -22 -10 -38 -8 -102
15 -99 34 -232 67 -271 67 -60 0 -33 -57 83 -180 71 -75 87 -97 111 -163 15
-42 31 -74 36 -71 5 3 9 39 9 80 l0 74 -71 75 c-39 41 -68 79 -64 85 15 24 62
9 120 -38 80 -65 95 -72 154 -72 38 0 56 6 78 24 27 24 28 27 31 143 1 65 8
128 14 140 6 12 51 43 100 69 50 27 100 61 113 78 26 34 45 95 45 142 0 44 42
120 105 191 30 33 55 64 55 67 0 15 -43 3 -109 -30z"/>
<path d="M2563 5535 c25 -18 113 -39 133 -31 15 6 15 8 -1 26 -15 16 -31 20
-84 20 -58 -1 -64 -2 -48 -15z"/>
<path d="M5175 5448 c-54 -27 -82 -54 -113 -108 -25 -42 -27 -53 -27 -155 1
-115 18 -184 29 -115 3 19 8 65 11 101 8 82 34 123 100 159 56 30 82 61 91
108 6 30 5 32 -22 32 -16 -1 -47 -10 -69 -22z"/>
<path d="M752 5378 c-14 -14 -17 -128 -3 -128 7 0 25 130 18 137 -2 1 -9 -3
-15 -9z"/>
<path d="M4061 5349 l-25 -10 32 -19 c36 -22 56 -78 45 -130 l-6 -33 44 9 c24
4 94 9 154 9 122 0 152 10 199 65 47 57 37 61 -60 24 -55 -21 -79 -25 -118
-19 -64 8 -114 29 -151 64 -31 29 -67 52 -82 50 -4 0 -19 -5 -32 -10z"/>
<path d="M570 5268 c0 -16 51 -68 67 -68 21 0 15 20 -16 51 -31 30 -51 37 -51
17z"/>
<path d="M1156 5198 c-13 -18 -36 -68 -50 -112 -28 -86 -50 -126 -69 -126 -7
0 -33 20 -57 45 -24 25 -48 45 -52 45 -4 0 -8 -15 -8 -32 0 -18 -12 -60 -25
-93 -28 -68 -31 -95 -11 -95 18 0 27 13 46 70 18 54 36 57 67 11 35 -52 55
-132 49 -194 -4 -28 -2 -68 2 -87 l8 -35 39 75 38 75 8 185 c8 178 9 187 38
242 33 66 20 81 -23 26z"/>
<path d="M1481 5182 c-14 -26 -14 -42 -1 -42 11 0 25 48 17 56 -3 3 -10 -3
-16 -14z"/>
<path d="M4510 5158 c-63 -16 -62 -15 -49 -40 7 -12 15 -47 18 -77 11 -101 55
-72 66 44 4 42 5 78 3 79 -1 2 -19 -1 -38 -6z"/>
<path d="M770 5109 c0 -19 -6 -44 -14 -54 -15 -21 -9 -23 -84 31 -37 28 -36 9
4 -57 45 -75 83 -165 84 -198 0 -43 28 -4 41 57 6 31 20 94 31 140 11 46 17
86 14 90 -4 3 -16 1 -26 -6 -16 -10 -22 -8 -35 10 -15 22 -15 22 -15 -13z"/>
<path d="M4920 4985 c-19 -22 5 -48 31 -34 10 5 19 14 19 19 0 5 -9 14 -19 19
-14 8 -22 7 -31 -4z"/>
<path d="M2755 4960 c-319 -36 -598 -154 -794 -336 -234 -215 -354 -419 -430
-726 -79 -320 -80 -608 -1 -906 153 -581 544 -980 1096 -1119 102 -26 122 -28
324 -27 236 0 307 9 473 65 395 131 709 426 856 804 70 177 94 305 107 550 11
233 -17 367 -126 590 -69 140 -129 222 -238 327 -238 227 -534 342 -877 341
-516 -2 -925 -293 -1037 -740 -19 -75 -22 -114 -22 -263 1 -265 41 -427 144
-583 131 -199 334 -332 572 -373 125 -22 323 -15 428 16 330 95 551 358 589
701 23 205 -43 332 -190 370 -86 23 -121 -6 -135 -108 -6 -46 -2 -60 35 -140
46 -101 51 -151 25 -230 -73 -221 -222 -354 -443 -399 -174 -35 -370 17 -530
140 -132 102 -235 279 -277 474 -16 74 -16 95 -5 184 15 121 41 210 88 299
105 202 321 348 577 389 119 20 339 8 461 -24 205 -53 406 -182 532 -340 77
-97 165 -270 193 -380 25 -99 27 -302 5 -431 -74 -421 -395 -778 -831 -924
-291 -98 -639 -77 -895 52 -343 174 -570 497 -673 958 -55 250 -57 417 -6 614
131 501 494 839 1028 957 82 19 130 22 312 23 188 0 228 -3 317 -23 330 -74
578 -208 808 -437 112 -111 222 -261 286 -387 35 -69 109 -250 134 -326 23
-71 39 -58 30 27 -16 170 -52 296 -125 443 -69 139 -141 239 -249 352 -268
275 -627 458 -1046 531 -109 19 -380 27 -490 15z"/>
<path d="M1324 4929 c-34 -23 -44 -38 -58 -87 -9 -32 -16 -87 -16 -123 0 -56
2 -61 13 -42 6 12 27 43 45 70 37 54 65 138 60 182 l-3 29 -41 -29z"/>
<path d="M5091 4600 c-21 -18 -21 -20 -4 -20 19 0 43 18 43 32 0 13 -13 9 -39
-12z"/>
<path d="M5123 4514 c-3 -8 0 -21 6 -27 10 -9 16 -8 26 7 8 10 12 23 9 27 -9
15 -34 10 -41 -7z"/>
<path d="M1228 4408 c-23 -45 -39 -64 -55 -66 -15 -2 -25 -13 -29 -29 -9 -36
2 -253 14 -265 13 -13 45 73 82 217 53 209 49 258 -12 143z"/>
<path d="M5045 4333 c-27 -2 -54 -8 -59 -13 -13 -13 10 -38 53 -58 20 -9 39
-18 43 -20 8 -4 23 29 34 73 4 18 2 24 -7 23 -8 -1 -36 -3 -64 -5z"/>
<path d="M5077 4113 c-3 -4 1 -37 9 -73 7 -36 16 -109 20 -162 4 -54 11 -95
15 -92 5 3 9 16 9 30 0 41 37 132 85 209 62 100 59 109 -18 50 -56 -43 -73
-44 -82 -6 -7 31 -30 58 -38 44z"/>
<path d="M935 3048 c-48 -115 -89 -180 -144 -232 -36 -34 -39 -46 -11 -46 23
0 40 -28 40 -64 0 -43 36 -33 73 21 17 25 43 59 56 75 l24 29 29 -28 c42 -40
73 -97 98 -181 23 -78 68 -142 102 -142 25 0 21 15 -48 155 -63 130 -128 320
-145 425 -7 41 -15 81 -19 88 -4 8 -26 -32 -55 -100z"/>
<path d="M4992 2905 c0 -16 2 -22 5 -12 2 9 2 23 0 30 -3 6 -5 -1 -5 -18z"/>
<path d="M4940 2595 c-18 -74 -21 -100 -12 -119 29 -65 22 -189 -18 -304 -11
-31 -19 -56 -17 -57 1 -1 35 -12 75 -24 85 -25 138 -68 183 -146 34 -60 35
-70 9 -92 -11 -10 -20 -23 -20 -29 0 -13 99 -104 112 -104 15 0 8 117 -11 191
-41 156 -36 319 16 447 14 35 22 66 19 69 -3 3 -36 -15 -73 -39 -37 -25 -80
-53 -95 -62 -31 -19 -40 -53 -10 -41 32 13 46 10 57 -12 16 -32 7 -78 -21
-108 -20 -22 -32 -26 -66 -23 -35 2 -46 9 -65 37 -28 41 -30 102 -7 157 22 53
20 179 -5 272 -11 41 -21 75 -23 77 -2 3 -15 -38 -28 -90z"/>
<path d="M965 2650 c-3 -5 1 -10 10 -10 9 0 13 5 10 10 -3 6 -8 10 -10 10 -2
0 -7 -4 -10 -10z"/>
<path d="M483 2609 c-30 -12 -53 -27 -53 -35 0 -18 14 -18 30 1 15 19 44 19
58 2 7 -8 9 -29 5 -50 -7 -48 3 -48 16 1 29 115 30 114 -56 81z"/>
<path d="M151 2470 c-24 -41 -64 -101 -88 -133 -40 -53 -51 -77 -38 -77 14 0
62 30 79 49 21 23 41 27 51 11 4 -6 10 -38 15 -71 7 -50 19 -76 69 -150 34
-50 61 -97 61 -105 0 -26 17 -6 24 27 3 17 22 67 42 110 37 83 74 246 74 326
0 25 -3 44 -6 41 -3 -3 -14 -44 -25 -92 -14 -59 -33 -104 -60 -146 -45 -70
-62 -80 -90 -54 -39 35 -49 69 -50 166 0 51 -3 111 -7 133 l-8 40 -43 -75z"/>
<path d="M1004 2500 c7 -44 26 -76 43 -69 4 2 -5 29 -21 59 l-28 55 6 -45z"/>
<path d="M662 2478 c-43 -45 -42 -61 2 -33 19 13 29 14 46 5 12 -6 34 -8 52
-5 28 7 29 8 12 18 -10 5 -31 21 -45 34 l-26 24 -41 -43z"/>
<path d="M4861 2404 c-20 -35 -71 -96 -125 -149 -62 -62 -102 -110 -125 -155
-47 -91 -76 -127 -119 -149 l-37 -19 60 -7 c33 -4 78 -11 100 -16 63 -13 65
-12 65 29 0 52 25 164 46 203 9 18 38 56 65 84 36 38 56 71 79 134 17 46 29
89 27 94 -2 6 -18 -16 -36 -49z"/>
<path d="M1230 2421 c0 -15 30 -41 47 -41 13 0 12 5 -7 25 -24 26 -40 32 -40
16z"/>
<path d="M895 2410 c3 -5 11 -10 16 -10 6 0 7 5 4 10 -3 6 -11 10 -16 10 -6 0
-7 -4 -4 -10z"/>
<path d="M595 2332 c-15 -11 -67 -113 -61 -119 10 -10 37 20 62 68 22 44 21
67 -1 51z"/>
<path d="M1237 2264 c-4 -4 -1 -17 7 -28 7 -12 15 -56 18 -99 3 -43 10 -83 17
-90 18 -18 146 -16 146 2 0 8 -15 19 -32 23 -47 12 -66 54 -58 123 6 46 5 54
-11 58 -45 13 -80 17 -87 11z"/>
<path d="M5330 2233 c0 -24 5 -43 10 -43 13 0 13 50 0 70 -7 11 -10 4 -10 -27z"/>
<path d="M5605 2176 c-5 -2 -22 -7 -37 -10 -34 -8 -34 -17 -6 -75 l22 -45 44
52 44 51 47 -24 c62 -31 79 -51 63 -75 -10 -16 -4 -24 53 -64 92 -66 104 -69
76 -20 -47 84 -119 171 -155 188 -35 17 -129 30 -151 22z"/>
<path d="M5346 2071 l-47 -61 20 -28 c11 -15 49 -56 84 -91 l65 -63 67 33 c80
39 142 43 201 12 38 -20 42 -27 59 -106 8 -39 70 -104 127 -133 47 -24 108
-32 108 -15 0 18 -71 70 -109 81 -48 13 -86 55 -96 106 -9 50 -47 124 -86 169
-45 51 -84 47 -157 -16 -44 -39 -91 -39 -134 0 -28 25 -32 35 -36 92 -2 35 -8
68 -12 72 -4 5 -29 -19 -54 -52z"/>
<path d="M110 2068 c0 -56 16 -90 50 -108 30 -16 30 2 -1 65 -16 33 -29 65
-29 72 0 6 -4 15 -10 18 -6 4 -10 -14 -10 -47z"/>
<path d="M1510 1860 c0 -5 5 -10 11 -10 5 0 7 5 4 10 -3 6 -8 10 -11 10 -2 0
-4 -4 -4 -10z"/>
<path d="M220 1850 c0 -5 7 -10 15 -10 8 0 15 5 15 10 0 6 -7 10 -15 10 -8 0
-15 -4 -15 -10z"/>
<path d="M1710 1779 c0 -6 15 -36 34 -67 19 -32 40 -70 48 -87 7 -16 28 -40
47 -52 37 -25 163 -67 181 -61 6 2 -29 36 -77 75 -48 39 -118 101 -155 137
-69 68 -78 74 -78 55z"/>
<path d="M4215 1684 c-221 -177 -312 -219 -533 -244 -63 -7 -96 -17 -145 -43
-34 -19 -75 -38 -92 -42 -29 -6 -29 -7 30 -38 33 -18 76 -44 96 -60 20 -15 40
-27 45 -27 5 0 24 23 41 50 34 52 74 78 169 110 29 10 83 37 120 59 37 23 78
41 90 41 14 0 49 23 86 56 86 77 96 81 108 49 6 -15 10 -57 10 -95 0 -38 4
-71 9 -74 11 -7 21 43 21 113 0 31 7 83 15 116 17 70 18 85 7 85 -4 0 -39 -25
-77 -56z"/>
<path d="M1614 1653 c-9 -56 -32 -156 -39 -175 -12 -31 11 -20 36 17 13 19 28
35 32 35 4 0 29 -20 55 -44 l47 -43 92 -5 c102 -6 128 -18 118 -55 -4 -19 -2
-23 19 -23 13 0 30 7 37 16 12 14 10 19 -15 39 -16 13 -58 33 -94 44 -35 12
-76 28 -91 35 -32 17 -94 83 -139 149 -18 26 -37 47 -42 47 -5 0 -12 -17 -16
-37z"/>
<path d="M4120 1428 c-159 -146 -183 -172 -164 -179 11 -4 34 -13 53 -20 19
-7 61 -35 92 -61 32 -26 61 -48 65 -48 16 0 -7 73 -35 114 -17 25 -31 47 -31
51 0 3 18 36 40 72 36 61 52 113 33 113 -5 0 -28 -19 -53 -42z"/>
<path d="M2245 1434 c-16 -8 -56 -41 -87 -72 -85 -83 -75 -101 26 -50 l40 20
62 -32 63 -32 188 12 c103 7 189 14 191 15 2 2 -23 8 -55 15 -141 28 -244 67
-309 116 -36 28 -76 30 -119 8z"/>
<path d="M1507 1356 c-15 -8 -47 -31 -70 -50 -23 -19 -77 -53 -119 -76 -44
-24 -75 -46 -72 -53 6 -17 81 -62 124 -75 19 -6 76 -20 127 -31 51 -11 102
-25 113 -31 20 -11 20 -12 3 -41 -36 -61 -44 -63 -109 -28 -51 27 -66 30 -111
26 -62 -6 -146 -49 -174 -88 -48 -67 -50 -257 -5 -366 14 -35 26 -74 26 -88 0
-42 -27 -82 -78 -116 -71 -48 -92 -70 -92 -97 0 -13 3 -22 8 -20 17 8 129 96
166 131 l39 38 -6 181 c-7 204 -2 226 58 272 108 83 162 32 153 -141 -4 -75
-2 -93 9 -93 16 0 35 40 62 136 18 61 31 83 94 155 40 46 90 95 110 109 20 14
37 28 37 32 0 4 -19 12 -42 18 -153 39 -218 78 -218 130 0 55 78 116 131 103
40 -10 128 -63 149 -91 l21 -26 36 36 35 36 -38 12 c-22 7 -84 32 -138 57
-112 51 -185 63 -229 39z"/>
<path d="M3123 1293 c-32 -16 -44 -33 -23 -33 21 0 80 29 80 39 0 15 -19 13
-57 -6z"/>
<path d="M3287 1303 c-12 -12 -7 -22 8 -17 8 4 15 10 15 15 0 11 -14 12 -23 2z"/>
<path d="M4395 1125 c-76 -77 -155 -118 -242 -123 -35 -3 -63 -8 -63 -13 0
-12 -8 -11 115 -18 126 -7 126 -7 105 -96 -12 -49 -12 -51 24 -103 35 -53 35
-53 41 -25 44 200 68 254 156 347 l61 65 -29 6 c-15 4 -41 11 -57 16 -16 5
-34 8 -40 7 -6 -1 -38 -29 -71 -63z"/>
<path d="M2715 1173 c-72 -6 -84 -12 -105 -53 -24 -47 -18 -49 55 -25 40 14
145 73 145 81 0 4 -25 3 -95 -3z"/>
<path d="M2950 1167 c0 -23 86 -107 110 -107 11 0 47 14 80 30 33 17 66 30 73
30 8 0 38 -23 67 -51 75 -72 95 -78 137 -37 43 42 42 51 -6 43 -35 -6 -46 -2
-101 36 -67 46 -90 49 -159 25 -54 -20 -100 -20 -126 -3 -68 47 -75 50 -75 34z"/>
<path d="M2426 1145 c8 -21 51 -30 80 -16 40 18 27 31 -31 31 -44 0 -53 -3
-49 -15z"/>
<path d="M1360 732 c-18 -18 -30 -41 -30 -56 0 -33 10 -33 41 2 48 52 51 58
34 72 -12 10 -20 7 -45 -18z"/>
<path d="M4210 654 c0 -4 21 -30 48 -58 26 -29 52 -61 59 -71 11 -19 13 -19
81 18 38 20 78 37 87 37 15 0 17 -6 12 -37 -3 -21 -9 -48 -13 -60 -11 -38 11
-26 34 20 12 23 32 59 43 80 12 21 19 40 16 43 -3 3 -31 0 -63 -7 -52 -10 -71
-9 -164 10 -58 13 -113 25 -122 27 -10 3 -18 2 -18 -2z"/>
<path d="M4534 336 c-17 -8 -36 -27 -43 -43 -26 -62 11 -109 119 -152 30 -12
86 -46 124 -76 99 -79 111 -75 45 14 -65 87 -89 110 -146 136 -56 25 -72 58
-34 70 21 7 36 34 24 46 -16 16 -59 18 -89 5z"/>
</g>
</svg>
